<?xml version="1.0" encoding="iso-8859-1"?>
<!-- Generator: Adobe Illustrator 19.0.0, SVG Export Plug-In . SVG Version: 6.00 Build 0)  -->
<svg xmlns="http://www.w3.org/2000/svg" xmlns:xlink="http://www.w3.org/1999/xlink" version="1.1" id="Capa_1" x="0px" y="0px" viewBox="0 0 511.781 511.781" style="enable-background:new 0 0 511.781 511.781;" xml:space="preserve" width="512px" height="512px">
<g>
	<g>
		<path d="M298.347,191.781h-85.333c-29.397,0-53.333,23.936-53.333,53.333v21.333c0,29.397,23.936,53.333,53.333,53.333h85.333    c29.397,0,53.333-23.936,53.333-53.333v-21.333C351.681,215.717,327.744,191.781,298.347,191.781z" fill="#ffffff"/>
	</g>
</g>
<g>
	<g>
		<path d="M347.862,108.603L264.022,3.792c-4.053-5.056-12.608-5.056-16.661,0l-85.333,106.667c-2.56,3.2-3.051,7.595-1.28,11.285    c1.771,3.691,5.504,6.037,9.6,6.037h170.667c0.149,0,0.277,0,0.427,0c5.888,0,10.667-4.779,10.667-10.667    C352.107,113.637,350.443,110.544,347.862,108.603z" fill="#ffffff"/>
	</g>
</g>
<g>
	<g>
		<path d="M350.635,389.819c-1.792-3.669-5.525-6.037-9.621-6.037H170.347c-4.096,0-7.829,2.347-9.621,6.037    c-1.771,3.691-1.28,8.085,1.28,11.285l85.333,106.667c2.027,2.539,5.099,4.011,8.341,4.011c3.243,0,6.293-1.472,8.341-4.011    l85.333-106.667C351.915,397.904,352.406,393.509,350.635,389.819z" fill="#ffffff"/>
	</g>
</g>
<g>
</g>
<g>
</g>
<g>
</g>
<g>
</g>
<g>
</g>
<g>
</g>
<g>
</g>
<g>
</g>
<g>
</g>
<g>
</g>
<g>
</g>
<g>
</g>
<g>
</g>
<g>
</g>
<g>
</g>
</svg>
